HIERARCHY
ROOT Hips
{
	OFFSET 0.000000 0.000000 0.000000 
	CHANNELS 6 Xposition Yposition Zposition Zrotation Yrotation Xrotation
	JOINT LHipJoint
	{
		OFFSET 0.000000 0.000000 0.000000 
		CHANNELS 3 Zrotation Yrotation Xrotation
		JOINT LeftUpLeg
		{
			OFFSET 1.550200 -1.879410 0.798960 
			CHANNELS 3 Zrotation Yrotation Xrotation
			JOINT LeftLeg
			{
				OFFSET 2.652690 -7.288220 0.000000 
				CHANNELS 3 Zrotation Yrotation Xrotation
				JOINT LeftFoot
				{
					OFFSET 2.612000 -7.176410 0.000000 
					CHANNELS 3 Zrotation Yrotation Xrotation
					JOINT LeftToeBase
					{
						OFFSET 0.093380 -0.256560 1.924610 
						CHANNELS 3 Zrotation Yrotation Xrotation
						End Site
						{
							OFFSET 0.000000 -0.000000 0.984800 
						}
					}
				}
			}
		}
	}
	JOINT RHipJoint
	{
		OFFSET 0.000000 0.000000 0.000000 
		CHANNELS 3 Zrotation Yrotation Xrotation
		JOINT RightUpLeg
		{
			OFFSET -1.568660 -1.879410 0.798950 
			CHANNELS 3 Zrotation Yrotation Xrotation
			JOINT RightLeg
			{
				OFFSET -2.601990 -7.148920 0.000000 
				CHANNELS 3 Zrotation Yrotation Xrotation
				JOINT RightFoot
				{
					OFFSET -2.628410 -7.221510 0.000000 
					CHANNELS 3 Zrotation Yrotation Xrotation
					JOINT RightToeBase
					{
						OFFSET -0.195320 -0.536630 1.931320 
						CHANNELS 3 Zrotation Yrotation Xrotation
						End Site
						{
							OFFSET -0.000000 -0.000000 1.008960 
						}
					}
				}
			}
		}
	}
	JOINT LowerBack
	{
		OFFSET 0.000000 0.000000 0.000000 
		CHANNELS 3 Zrotation Yrotation Xrotation
		JOINT Spine
		{
			OFFSET 0.063810 2.078060 -0.221120 
			CHANNELS 3 Zrotation Yrotation Xrotation
			JOINT Spine1
			{
				OFFSET -0.028810 2.088900 0.018250 
				CHANNELS 3 Zrotation Yrotation Xrotation
				JOINT Neck
				{
					OFFSET 0.000000 0.000000 0.000000 
					CHANNELS 3 Zrotation Yrotation Xrotation
					JOINT Neck1
					{
						OFFSET 0.024180 1.743250 -0.020230 
						CHANNELS 3 Zrotation Yrotation Xrotation
						JOINT Head
						{
							OFFSET -0.017040 1.716770 0.040900 
							CHANNELS 3 Zrotation Yrotation Xrotation
							End Site
							{
								OFFSET -0.009460 1.782380 0.016840 
							}
						}
					}
				}
				JOINT LeftShoulder
				{
					OFFSET 0.000000 0.000000 0.000000 
					CHANNELS 3 Zrotation Yrotation Xrotation
					JOINT LeftArm
					{
						OFFSET 3.397830 1.341570 0.166100 
						CHANNELS 3 Zrotation Yrotation Xrotation
						JOINT LeftForeArm
						{
							OFFSET 5.152180 -0.000000 0.000000 
							CHANNELS 3 Zrotation Yrotation Xrotation
							JOINT LeftHand
							{
								OFFSET 3.494590 -0.000000 0.000000 
								CHANNELS 3 Zrotation Yrotation Xrotation
								JOINT LeftFingerBase
								{
									OFFSET 0.000000 0.000000 0.000000 
									CHANNELS 3 Zrotation Yrotation Xrotation
									JOINT LeftHandIndex1
									{
										OFFSET 0.512470 -0.000000 0.000000 
										CHANNELS 3 Zrotation Yrotation Xrotation
										End Site
										{
											OFFSET 0.413160 -0.000000 0.000000 
										}
									}
								}
								JOINT LThumb
								{
									OFFSET 0.000000 0.000000 0.000000 
									CHANNELS 3 Zrotation Yrotation Xrotation
									End Site
									{
										OFFSET 0.419470 -0.000000 0.419470 
									}
								}
							}
						}
					}
				}
				JOINT RightShoulder
				{
					OFFSET 0.000000 0.000000 0.000000 
					CHANNELS 3 Zrotation Yrotation Xrotation
					JOINT RightArm
					{
						OFFSET -3.262240 1.055090 0.011880 
						CHANNELS 3 Zrotation Yrotation Xrotation
						JOINT RightForeArm
						{
							OFFSET -5.443440 -0.000000 0.000000 
							CHANNELS 3 Zrotation Yrotation Xrotation
							JOINT RightHand
							{
								OFFSET -3.584030 -0.000000 0.000000 
								CHANNELS 3 Zrotation Yrotation Xrotation
								JOINT RightFingerBase
								{
									OFFSET 0.000000 0.000000 0.000000 
									CHANNELS 3 Zrotation Yrotation Xrotation
									JOINT RightHandIndex1
									{
										OFFSET -0.342490 -0.000000 0.000000 
										CHANNELS 3 Zrotation Yrotation Xrotation
										End Site
										{
											OFFSET -0.276120 -0.000000 0.000000 
										}
									}
								}
								JOINT RThumb
								{
									OFFSET 0.000000 0.000000 0.000000 
									CHANNELS 3 Zrotation Yrotation Xrotation
									End Site
									{
										OFFSET -0.280340 -0.000000 0.280340 
									}
								}
							}
						}
					}
				}
			}
		}
	}
}
MOTION
Frames: 6
Frame Time: 0.008333
-8.456111 17.622051 2.429206 68.353516 -85.910461 -53.889118 0.000000 0.000000 0.000000 -26.925344 -0.919995 -15.051275 3.622108 11.615560 34.415970 0.576256 -10.322591 -14.394111 1.142411 -6.648670 -18.730484 0.000000 0.000000 0.000000 13.603872 10.304666 -51.761566 -9.452131 -17.089117 57.639702 -0.086842 2.003994 -5.374578 -0.385878 3.986903 -11.039993 0.346497 -4.608400 23.958046 -0.173927 -6.292331 5.798023 1.475897 -3.183837 -6.943567 8.495107 8.794618 5.093845 -13.618950 11.158836 -14.688804 -5.839614 5.852242 -3.626509 0.000000 0.000000 0.000000 -64.927223 -38.291042 28.476967 57.720665 -54.718605 -32.674606 0.000000 0.000000 13.660218 28.521759 7.903453 4.367522 -7.125000 0.000000 0.000000 1.499985 38.996147 -0.120084 0.000000 0.000000 0.000000 75.048820 -20.114567 38.986000 -35.032978 44.418766 -14.976457 0.000000 0.000000 18.261972 -34.873085 -28.369837 18.860117 7.125000 0.000000 0.000000 -6.734665 -63.426987 4.009666 
-8.508333 17.662149 2.423218 67.719345 -85.866882 -53.377632 0.000000 0.000000 0.000000 -26.900187 -1.098441 -14.532349 3.546365 11.515820 34.058693 0.527013 -9.982881 -13.811872 1.004272 -6.125590 -17.231216 0.000000 0.000000 0.000000 13.838143 10.145731 -51.095531 -9.383963 -17.048485 57.408508 -0.109434 2.549188 -6.089956 -0.437256 4.248907 -11.777288 0.366894 -4.585400 23.660940 -0.240003 -6.256863 5.704797 1.360294 -3.166375 -6.906984 8.277813 8.663685 4.990241 -13.298800 11.007822 -14.424307 -5.696478 5.772234 -3.572819 0.000000 0.000000 0.000000 -66.574692 -35.812290 29.976231 55.426735 -54.355461 -30.715965 0.000000 0.000000 14.294838 28.796021 7.922906 4.410344 -7.125000 0.000000 0.000000 1.729969 39.032696 -0.170269 0.000000 0.000000 0.000000 75.394638 -19.125784 38.371944 -35.042004 44.453777 -14.973013 0.000000 0.000000 18.262997 -35.432175 -28.656475 19.262384 7.125000 0.000000 0.000000 -7.197931 -63.856777 4.086031 
-8.572555 17.706053 2.396630 66.660767 -85.969093 -52.379150 0.000000 0.000000 0.000000 -26.682032 -1.134986 -14.259725 3.518823 11.479778 33.929310 0.519769 -9.067071 -13.440533 1.150133 -6.697111 -18.864149 0.000000 0.000000 0.000000 14.264316 10.289296 -50.125095 -9.202894 -16.938452 56.791908 -0.110327 2.728581 -6.054235 -0.572934 4.868809 -13.531081 0.249391 -4.452000 23.318735 -0.246080 -6.106194 5.582070 1.349591 -3.090813 -6.856102 8.067919 8.509451 4.915536 -12.952351 10.832008 -14.141410 -5.546042 5.678726 -3.521128 0.000000 0.000000 0.000000 -68.185760 -33.059631 31.486397 52.895206 -53.868713 -28.570324 0.000000 0.000000 15.022757 29.133780 7.819559 4.402466 -7.125000 0.000000 0.000000 2.020953 38.937038 -0.230153 0.000000 0.000000 0.000000 75.992363 -17.825001 37.523796 -34.654129 44.144390 -14.711069 0.000000 0.000000 18.471220 -36.405361 -28.951811 19.918152 7.125000 0.000000 0.000000 -8.167497 -64.407661 4.375497 
-8.649277 17.752050 2.361242 64.962685 -86.290901 -50.730865 0.000000 0.000000 0.000000 -26.263674 -0.927331 -14.259900 3.568081 11.547437 34.167732 0.533925 -7.930463 -13.262693 1.505494 -7.844331 -22.200382 0.000000 0.000000 0.000000 14.857488 10.714562 -48.842159 -8.922425 -16.762617 55.828812 -0.100919 3.015175 -5.616212 -0.710513 5.418513 -15.099575 0.151288 -4.259900 22.957830 -0.218356 -5.871025 5.455944 1.339787 -2.975150 -6.797719 7.847725 8.379619 4.809731 -12.574301 10.692793 -13.831812 -5.384206 5.601318 -3.455338 0.000000 0.000000 0.000000 -69.645126 -30.270676 32.839664 49.751472 -53.133671 -25.931984 0.000000 0.000000 15.492775 29.557537 7.525312 4.309188 -7.125000 0.000000 0.000000 2.393137 38.632587 -0.308137 0.000000 0.000000 0.000000 76.659683 -16.098820 36.788845 -33.796753 43.418106 -14.147326 0.000000 0.000000 18.938744 -37.712349 -29.167850 20.757818 7.125000 0.000000 0.000000 -9.616262 -64.972054 4.902563 
-8.736299 17.788454 2.330654 60.517006 -86.542816 -46.336082 0.000000 0.000000 0.000000 -25.645220 -0.923677 -14.356174 3.717639 11.747597 34.880051 0.534481 -7.163753 -13.087754 1.713355 -8.414951 -23.893015 0.000000 0.000000 0.000000 15.660660 10.946428 -47.402229 -8.582756 -16.540287 54.648518 -0.086811 3.526169 -4.993690 -0.817991 5.807315 -16.217869 0.365884 -4.190800 22.559027 -0.153033 -5.713356 5.297917 1.219384 -2.899587 -6.782636 7.569632 8.265486 4.890127 -12.128150 10.582779 -13.643416 -5.203070 5.539411 -3.461947 0.000000 0.000000 0.000000 -70.972504 -27.718220 34.065228 45.640644 -51.952927 -22.530140 0.000000 0.000000 15.289393 30.054296 7.232165 4.221210 -7.125000 0.000000 0.000000 2.824222 38.331333 -0.403322 0.000000 0.000000 0.000000 77.328712 -14.054035 36.228394 -32.477982 42.251518 -13.298182 0.000000 0.000000 19.813066 -38.547237 -29.192389 21.250586 7.125000 0.000000 0.000000 -10.602928 -65.215538 5.282028 
-8.830920 17.807453 2.302066 54.414829 -86.650726 -40.251595 0.000000 0.000000 0.000000 -24.940863 -1.195622 -14.617149 3.982097 12.089356 36.113972 0.525438 -6.595843 -12.876415 1.917816 -8.923172 -25.423447 0.000000 0.000000 0.000000 16.584431 10.965294 -45.899693 -8.211887 -16.285553 53.341518 -0.073903 4.279562 -4.544269 -0.950269 6.249019 -17.497963 0.741781 -4.179100 22.014421 -0.075809 -5.593388 5.166191 1.019981 -2.846625 -6.675953 7.452338 8.135653 4.960322 -11.845200 10.440966 -13.425819 -5.096634 5.463003 -3.447856 0.000000 0.000000 0.000000 -72.405266 -24.019163 35.286995 42.914513 -51.017979 -20.310196 0.000000 0.000000 14.827712 30.578455 7.615718 4.493331 -7.125000 0.000000 0.000000 3.256006 38.795383 -0.478906 0.000000 0.000000 0.000000 78.177628 -11.793753 35.487839 -30.960709 40.849335 -12.344238 0.000000 0.000000 21.000490 -38.985226 -29.459826 21.637451 7.125000 0.000000 0.000000 -11.025793 -65.620728 5.450194 
